<?xml version="1.0" standalone="no"?>
<!DOCTYPE svg PUBLIC "-//W3C//DTD SVG 20010904//EN"
 "http://www.w3.org/TR/2001/REC-SVG-20010904/DTD/svg10.dtd">
<svg version="1.0" xmlns="http://www.w3.org/2000/svg"
 width="300.000000pt" height="223.000000pt" viewBox="0 0 300.000000 223.000000"
 preserveAspectRatio="xMidYMid meet">
<metadata>
Created by potrace 1.10, written by Peter Selinger 2001-2011
</metadata>
<g transform="translate(0.000000,223.000000) scale(0.100000,-0.100000)"
fill="#000000" stroke="none">
<path d="M20 2183 c1 -4 38 -98 83 -208 l82 -200 41 -3 41 -3 50 -122 c28 -67
134 -322 236 -567 102 -245 242 -580 310 -745 l125 -300 129 -3 129 -3 116
278 c118 281 775 1846 785 1871 5 12 -27 13 -178 10 -162 -4 -191 -7 -242 -27
-71 -28 -132 -74 -170 -127 -15 -22 -107 -235 -203 -474 -96 -239 -187 -463
-201 -498 l-25 -63 -48 118 c-387 961 -362 904 -435 971 -95 87 -131 96 -397
100 -126 2 -228 0 -228 -5z"/>
<path d="M2278 2008 c-43 -101 -80 -191 -84 -200 -6 -17 16 -18 375 -18 l381
0 0 200 0 200 -298 0 -297 0 -77 -182z"/>
<path d="M2460 1142 c0 -501 -4 -547 -52 -614 -38 -55 -137 -83 -202 -59 -24
10 -26 7 -57 -67 -124 -297 -137 -333 -126 -337 7 -2 28 -9 47 -15 19 -7 100
-15 180 -17 114 -4 159 -2 210 11 178 45 331 168 408 327 75 154 75 152 79
727 l4 512 -245 0 -246 0 0 -468z"/>
<path d="M1820 742 l-75 -3 -145 -345 c-80 -189 -146 -349 -148 -354 -2 -6 60
-10 170 -10 l173 1 143 342 c79 188 146 350 149 360 5 15 -4 17 -93 15 -55 -1
-133 -4 -174 -6z"/>
</g>
</svg>
